<?xml version="1.0" encoding="UTF-8" standalone="no"?>
<svg
   xmlns:dc="http://purl.org/dc/elements/1.1/"
   xmlns:cc="http://creativecommons.org/ns#"
   xmlns:rdf="http://www.w3.org/1999/02/22-rdf-syntax-ns#"
   xmlns:svg="http://www.w3.org/2000/svg"
   xmlns="http://www.w3.org/2000/svg"
   xmlns:sodipodi="http://sodipodi.sourceforge.net/DTD/sodipodi-0.dtd"
   xmlns:inkscape="http://www.inkscape.org/namespaces/inkscape"
   viewBox="0 0 841.9 595.3"
   version="1.1"
   id="svg10"
   sodipodi:docname="logo1.svg"
   inkscape:version="1.0.1 (3bc2e813f5, 2020-09-07)">
  <metadata
     id="metadata16">
    <rdf:RDF>
      <cc:Work
         rdf:about="">
        <dc:format>image/svg+xml</dc:format>
        <dc:type
           rdf:resource="http://purl.org/dc/dcmitype/StillImage" />
        <dc:title></dc:title>
      </cc:Work>
    </rdf:RDF>
  </metadata>
  <defs
     id="defs14" />
  <sodipodi:namedview
     pagecolor="#ffffff"
     bordercolor="#666666"
     borderopacity="1"
     objecttolerance="10"
     gridtolerance="10"
     guidetolerance="10"
     inkscape:pageopacity="0"
     inkscape:pageshadow="2"
     inkscape:window-width="1366"
     inkscape:window-height="704"
     id="namedview12"
     showgrid="false"
     inkscape:zoom="0.91382498"
     inkscape:cx="397.70373"
     inkscape:cy="308.55951"
     inkscape:window-x="0"
     inkscape:window-y="27"
     inkscape:window-maximized="1"
     inkscape:current-layer="g8"
     inkscape:snap-others="true" />
  <g
     fill="#61DAFB"
     id="g8">
    <path
       d="m 425.62733,52.195261 c 32.5,0 63.3,40.7 82.4,103.099999 63.6,-14.4 114.2,-8 130.4,20.2 3.8,6.5 5.6,14.1 5.6,22.4 h -22.3 c 0,-4.6 -0.9,-8.3 -2.6,-11.4 -7.8,-13.6 -37.5,-19.5 -75.7,-14.9 -9.4,1.1 -19.3,2.9 -29.4,5.1 4.8,19.6 8.5,41 10.9,63.5 18.5,13.5 35.3,27.5 50,41.6 30.3,-32.6 46.9,-63.2 46.9,-84 h 22.3 c 0,27.5 -19.6,63.5 -53.6,99.9 33.8,36.4 53.2,72.4 53.2,99.9 h -22.3 c 0,-20.7 -16.5,-51.4 -46.6,-84 -14.7,14 -31.4,28 -49.9,41.3 -2.4,22.6 -6.1,44 -11,63.6 10,2.3 19.7,4 29,5.2 38.2,4.7 67.9,-1.1 75.8,-14.6 1.8,-3 2.6,-6.9 2.6,-11.5 h 22.3 c 0,8.4 -1.8,16 -5.6,22.6 -16.2,28.1 -66.7,34.4 -130.1,19.9 -19.2,62.2 -49.9,102.7 -82.3,102.7 -32.5,0 -63.3,-40.7 -82.4,-103.1 -63.6,14.4 -114.2,8 -130.4,-20.2 -3.8,-6.5 -5.6,-14.1 -5.6,-22.5 0,-27.5 19.6,-63.5 53.6,-99.9 -33.8,-36.4 -53.2,-72.4 -53.2,-99.9 0,-8.4 1.8,-16 5.6,-22.6 16.2,-28.1 66.7,-34.4 130.1,-19.9 19.1,-61.999999 49.9,-102.499999 82.3,-102.499999 z m 66.7,130.199999 c -12.9,3.7 -26.2,8.3 -39.5,13.5 8,4.1 16,8.4 24,13.1 8,4.6 15.8,9.5 23.4,14.4 -2.1,-14.2 -4.7,-27.9 -7.9,-41 z m -106.5,45.8 c -13.5,7.8 -26.3,15.8 -38.2,24.1 -1.3,14.9 -2,30 -2,45.2 0,15.1 0.7,30.2 1.9,45 11.9,8.3 24.6,16.4 38,24.2 13.1,7.6 26.4,14.5 39.8,20.8 13.4,-6.2 26.8,-13.2 39.9,-20.7 13.5,-7.8 26.3,-15.8 38.2,-24.1 1.3,-14.9 2,-30 2,-45.2 0,-15.1 -0.7,-30.2 -1.9,-45 -11.9,-8.3 -24.6,-16.4 -38,-24.2 -13.1,-7.6 -26.4,-14.5 -39.8,-20.8 -13.4,6.3 -26.8,13.2 -39.9,20.7 z m 13,-32.3 c -13.4,-5.4 -26.8,-10 -39.8,-13.8 -3.2,13.1 -5.9,26.9 -8,41.2 7.7,-4.9 15.6,-9.8 23.7,-14.4 8,-4.6 16.1,-8.9 24.1,-13 z m -106.7,101.4 c 9.6,9.3 20.3,18.6 32,27.8 -0.4,-9 -0.7,-18.2 -0.7,-27.5 0,-9.4 0.2,-18.7 0.7,-27.8 -11.7,9 -22.4,18.3 -32,27.5 z m 58.9,74.4 c 2.1,14.2 4.7,27.9 7.9,41 12.9,-3.7 26.2,-8.3 39.5,-13.5 -8,-4.1 -16,-8.4 -24,-13.1 -8,-4.7 -15.8,-9.5 -23.4,-14.4 z m 208.1,-73.9 c -9.6,-9.3 -20.3,-18.6 -32,-27.8 0.4,9 0.7,18.2 0.7,27.5 0,9.4 -0.2,18.7 -0.7,27.8 11.7,-9 22.4,-18.3 32,-27.5 z m -58.9,74 c -7.7,4.9 -15.6,9.8 -23.7,14.4 -8,4.6 -16,8.9 -24,13 13.4,5.4 26.8,10 39.8,13.8 3.1,-13.1 5.8,-26.9 7.9,-41.2 z m -125.2,90.5 c 15.1,35.4 34.9,58.3 50.6,58.3 15.7,0 35.6,-22.9 50.6,-58.3 3.7,-8.6 7,-18 10.1,-27.7 -19.6,-5.7 -40,-13.2 -60.9,-22.5 -20.8,9.2 -41.1,16.6 -60.6,22.2 3.1,9.9 6.5,19.3 10.2,28 z m -142.9,-53.8 c 7.8,13.6 37.5,19.5 75.7,14.9 9.4,-1.1 19.3,-2.9 29.4,-5.1 -4.8,-19.6 -8.5,-41 -10.9,-63.5 -18.5,-13.5 -35.3,-27.5 -50,-41.6 -30.3,32.6 -46.9,63.2 -46.9,84 0.1,4.5 1,8.3 2.7,11.3 z m 76.2,-237.2 c -38.2,-4.7 -67.9,1.1 -75.8,14.6 -1.8,3 -2.6,6.9 -2.6,11.5 0,20.7 16.5,51.4 46.6,84 14.7,-14 31.4,-28 49.9,-41.3 2.4,-22.6 6.1,-44 11,-63.6 -10.1,-2.3 -19.8,-4.1 -29.1,-5.2 z m 66.7,-38.5 c -3.7,8.6 -7,18 -10.1,27.7 19.6,5.7 40,13.2 60.9,22.5 20.8,-9.2 41.1,-16.6 60.6,-22.2 -3.1,-9.9 -6.5,-19.3 -10.2,-28.1 -15.1,-35.399999 -34.9,-58.299999 -50.6,-58.299999 -15.7,0.1 -35.6,23 -50.6,58.399999 z m 268.7,264.9 z"
       id="path2"
       style="fill:#ff5d00;fill-opacity:1" />
    <circle
       cx="420.9"
       cy="296.5"
       r="45.7"
       id="circle4"
       style="fill:#ff5331;fill-opacity:0.50929636" />
    <path
       d="M520.5 78.1z"
       id="path6" />
  </g>
</svg>
